<svg width="17" height="33" viewBox="0 0 17 33" fill="none" xmlns="http://www.w3.org/2000/svg">
<path fill-rule="evenodd" clip-rule="evenodd" d="M6.82084 32.9945C6.82084 32.9945 6.82085 32.9945 6.82085 32.9945C7.23251 32.9945 7.99397 32.8929 8.618 32.5505C9.13555 32.2666 8.92598 31.4299 9.3434 31.0124C9.45802 30.8978 9.7223 31.0597 9.76952 31.2148C9.82798 31.4068 10.0108 31.5107 10.4245 31.3728C11.5056 31.0124 12.5867 30.6521 12.9471 30.1115C13.0465 29.9623 13.1048 30.0053 13.1977 30.0737C13.4315 30.2461 13.8848 30.5801 15.7675 28.4134C15.9249 28.2322 15.9959 27.9827 16.0595 27.7512C16.1445 27.4421 16.5013 27.254 16.5486 26.9369C16.5988 26.5999 16.5422 26.1347 16.1904 25.6069C15.6138 24.7421 14.5087 22.3636 14.0282 21.2825L12.5704 17.4924C12.3421 16.8987 12.04 16.3344 11.6374 15.8419C10.7961 14.813 9.58191 13.5188 8.66508 13.114C8.42889 13.0097 8.21032 12.8382 8.12868 12.5932C8.098 12.5012 8.08741 12.4039 8.09913 12.3075C8.11456 12.1807 8.13364 12.0369 8.15543 11.8901C8.24993 11.2534 9.08614 9.75079 8.44248 9.75079C8.29833 9.75079 7.54156 9.51055 7.18119 9.39043C7.08455 9.35847 6.82083 9.57061 6.82083 9.75079C6.82083 10.1447 6.58239 10.5355 6.62583 10.9269C6.63511 11.0106 6.64064 11.0995 6.64064 11.1923C6.64064 11.4104 6.54894 11.5766 6.43492 11.6954C6.2492 11.889 5.97967 11.9732 5.73973 12.0932C5.49332 12.2164 5.33115 11.9184 5.25323 11.7752C5.21719 11.7089 5.19918 11.6758 5.19918 11.7328C5.19918 11.877 4.59859 12.5136 4.29828 12.8139C4.29827 12.8139 4.29826 12.8139 4.29826 12.8139C4.29826 12.814 4.29826 12.814 4.29825 12.814L4.1771 13.1169C4.02301 13.5021 3.69485 13.7971 3.46377 14.1417C3.43962 14.1777 3.41723 14.2156 3.39735 14.2554C3.32364 14.4028 3.24679 14.6193 3.18126 14.8279C3.08062 15.1481 2.67662 15.3612 2.67662 15.6969C2.67662 15.7657 2.70291 15.8082 2.72536 15.8446C2.76169 15.9033 2.78798 15.9459 2.67662 16.0572C2.47677 16.2571 2.03599 16.2023 1.95287 16.4724L1.41533 18.2194C1.12253 19.5663 0.441455 23.0487 0.00677577 26.4286C-0.0148494 26.5967 0.0168196 26.7454 0.0799608 26.9027C0.271692 27.3805 0.0818865 28.2155 0.278562 28.6912C0.365965 28.9026 0.423725 29.0977 0.417038 29.2309C0.410753 29.356 0.232771 29.4568 0.302564 29.5609C0.33484 29.609 0.409299 29.6555 0.54978 29.6905C0.989674 29.8001 1.52028 29.8693 1.58478 30.318C1.5917 30.3661 1.59552 30.4174 1.59552 30.4719C1.59552 30.9044 3.39735 31.2527 4.29827 31.3728C4.41056 31.3728 4.59282 31.3448 4.71424 31.254C4.83916 31.1605 4.96531 31.0125 5.12135 31.0125C5.26748 31.0125 5.3886 31.1239 5.41371 31.2678C5.5351 31.9638 5.92966 32.9945 6.82082 32.9945C6.82083 32.9945 6.82084 32.9945 6.82084 32.9945Z" fill="#C92222"/>
<path d="M5.19915 11.7327C5.05501 12.1652 3.5775 13.5946 3.03695 14.0751V15.1562L2.85677 15.3364C2.67658 15.5166 2.73667 15.5766 2.67661 15.6968C3.03697 16.2373 2.49643 16.1772 2.31624 16.0571C1.95585 15.8769 2.07596 15.3965 2.13602 15.1562C2.19608 14.7358 2.31624 14.3634 2.31624 14.0751C2.31624 13.7868 3.86709 11.3879 4.64253 10.4948C4.55437 10.6835 4.96981 11.3887 5.19915 11.7327Z" fill="white"/>
<path d="M7.36139 8.66973L7.72176 8.12918L7.18121 9.39047L8.08212 9.75083H8.44249C8.44249 8.88595 10.0641 6.8679 9.16322 5.96698C8.26231 5.06606 9.34341 4.34533 9.34341 4.34533C9.70377 3.80478 9.88396 3.6246 9.88396 2.72368C9.88396 2.21052 9.73981 1.64258 8.44249 1.64258C7.54157 1.64258 6.8809 2.06301 6.82084 2.5435C6.76078 2.72368 6.82084 2.75972 6.82084 2.90386C6.82084 2.99666 6.82084 3.2687 6.72468 3.49881C6.63671 3.70932 6.35844 3.7809 6.46047 3.98496C6.64066 4.34533 6.64066 5.24625 7.36139 5.24625C8.08212 5.24625 7.72176 5.96698 7.72176 5.96698L6.46047 6.50753C6.28029 6.8679 5.91992 7.62467 5.91992 7.76882C5.91992 7.949 6.28028 8.30936 6.46047 8.48955L6.46047 8.48955C6.60462 8.6337 7.12114 8.66973 7.36139 8.66973Z" fill="white"/>
<path d="M7.72177 8.12909L7.53594 8.84254C7.46901 9.09949 7.27691 9.29051 7.09422 9.48321C7.03312 9.54766 6.99759 9.61633 6.99759 9.69586C6.99759 9.8561 6.88398 10.3833 6.80781 10.7108C6.79001 10.7874 6.78443 10.8663 6.76807 10.9432C6.73365 11.1049 6.64066 11.2251 6.64066 11.3724C6.64067 11.7328 5.75802 12.3725 5.55957 12.2733C5.36111 12.1741 5.01902 11.7786 5.01902 11.5526C5.01902 11.3623 4.48213 10.7283 4.44181 9.99313C4.42692 9.72161 4.39212 9.43982 4.31301 9.17966C4.23113 8.91037 4.18945 8.60284 4.29828 8.48946C4.44675 8.33478 4.99981 8.02747 5.38288 7.84758C5.49869 7.79319 5.60797 7.72383 5.6926 7.62788C5.88691 7.40759 6.03272 7.17777 6.13137 7.02737C6.21651 6.89756 6.28228 6.9491 6.2609 7.10286C6.22202 7.3824 6.15391 7.65382 6.34686 7.88798C6.86912 8.52174 7.17459 8.60107 7.46959 8.38126L7.72177 8.12909Z" fill="#C92222"/>
<path fill-rule="evenodd" clip-rule="evenodd" d="M7.40492 0.62449L7.48915 0.456047C7.62715 0.180042 7.88739 -0.0230769 8.19495 0.00211098C9.08638 0.0751164 10.4402 0.614902 10.7846 1.5479C10.853 1.73311 10.8094 1.93572 10.7211 2.11231L10.6373 2.27985C10.638 2.28044 10.6386 2.28104 10.6392 2.28167C12.9531 4.52879 11.1384 5.62433 8.0393 3.83014C5.66411 2.45503 5.36161 1.26656 5.52008 0.764924C5.53815 0.707718 5.57019 0.655737 5.6128 0.61351C6.01216 0.217777 6.89316 0.425062 7.40492 0.62449Z" fill="#C92222"/>
</svg>