<svg width="15" height="30" viewBox="0 0 15 30" fill="none" xmlns="http://www.w3.org/2000/svg">
<path fill-rule="evenodd" clip-rule="evenodd" d="M6.17664 29.8752C6.54941 29.8752 7.23898 29.7833 7.80409 29.4732C8.27275 29.2161 8.08298 28.4584 8.46097 28.0804C8.56477 27.9766 8.80409 28.1232 8.84685 28.2636C8.89979 28.4375 9.06535 28.5316 9.43997 28.4067C10.419 28.0804 11.398 27.7541 11.7243 27.2646C11.8144 27.1295 11.8671 27.1684 11.9512 27.2304C12.163 27.3864 12.5734 27.6889 14.2783 25.7268C14.4209 25.5627 14.4852 25.3368 14.5428 25.1272C14.6197 24.8473 14.9428 24.6769 14.9857 24.3898C15.0312 24.0846 14.9799 23.6634 14.6613 23.1854C14.1392 22.4022 13.1384 20.2484 12.7033 19.2694L11.3832 15.8373C11.1764 15.2996 10.9029 14.7886 10.5383 14.3426C9.7765 13.4109 8.67696 12.239 7.84672 11.8724C7.63284 11.7779 7.43491 11.6226 7.36098 11.4008C7.3332 11.3175 7.32361 11.2293 7.33422 11.1421C7.34819 11.0272 7.36547 10.897 7.3852 10.764C7.47078 10.1875 8.22801 8.82681 7.64514 8.82681C7.51461 8.82681 6.82931 8.60925 6.50298 8.50047C6.41546 8.47154 6.17664 8.66364 6.17664 8.82681C6.17664 9.18348 5.96072 9.53738 6.00007 9.89188C6.00847 9.9676 6.01348 10.0481 6.01348 10.1321C6.01348 10.3297 5.93043 10.4802 5.82718 10.5878C5.659 10.7631 5.41493 10.8393 5.19765 10.948C4.97451 11.0595 4.82766 10.7897 4.7571 10.66C4.72447 10.6 4.70815 10.57 4.70815 10.6216C4.70815 10.7516 4.16873 11.3239 3.89569 11.5973L3.89232 11.6006C3.89232 11.6006 3.89232 11.6006 3.89232 11.6006L3.8269 11.7642C3.65883 12.1844 3.27887 12.5012 3.07649 12.906C3.00974 13.0395 2.94015 13.2355 2.88081 13.4243C2.78968 13.7143 2.42383 13.9073 2.42383 14.2113C2.42383 14.2736 2.44763 14.3121 2.46796 14.345C2.50086 14.3983 2.52467 14.4368 2.42383 14.5376C2.24285 14.7186 1.8437 14.669 1.76843 14.9136L1.28166 16.4956C1.01651 17.7153 0.399762 20.8688 0.00613582 23.9294C-0.0134469 24.0817 0.0152311 24.2163 0.0724086 24.3588C0.246032 24.7914 0.074154 25.5476 0.252255 25.9784C0.331403 26.1698 0.383707 26.3465 0.377651 26.4671C0.371959 26.5804 0.210788 26.6717 0.273988 26.7659C0.303214 26.8095 0.370641 26.8516 0.497853 26.8833C0.896203 26.9826 1.3767 27.0452 1.43511 27.4516C1.44137 27.4951 1.44483 27.5415 1.44483 27.5909C1.44483 27.9825 3.07649 28.298 3.89232 28.4067C3.994 28.4067 4.15905 28.3814 4.269 28.2991C4.38213 28.2144 4.49637 28.0804 4.63767 28.0804C4.77 28.0804 4.87968 28.1813 4.90242 28.3117C5.01234 28.9419 5.36964 29.8752 6.17664 29.8752Z" fill="#C92222"/>
<path d="M4.70815 10.6216C4.57761 11.0132 3.23965 12.3077 2.75015 12.7428V13.7218L2.58698 13.8849C2.42382 14.0481 2.47823 14.1025 2.42384 14.2113C2.75017 14.7008 2.26068 14.6464 2.09751 14.5376C1.77115 14.3744 1.87992 13.9393 1.93431 13.7218C1.9887 13.3411 2.09751 13.0038 2.09751 12.7428C2.09751 12.4817 3.50189 10.3094 4.20409 9.50058C4.12426 9.67146 4.50046 10.3101 4.70815 10.6216Z" fill="black"/>
<path d="M6.66617 7.84779L6.9925 7.35829L6.503 8.50046L7.31883 8.82679H7.64517C7.64517 8.04359 9.11366 6.21613 8.29783 5.4003C7.482 4.58447 8.461 3.93181 8.461 3.93181C8.78733 3.44231 8.95049 3.27914 8.95049 2.46331C8.95049 1.99861 8.81996 1.48431 7.64517 1.48431C6.82933 1.48431 6.23106 1.86503 6.17667 2.30014C6.12228 2.46331 6.17667 2.49594 6.17667 2.62648C6.17667 2.71051 6.17667 2.95686 6.08959 3.16524C6.00993 3.35586 5.75794 3.42068 5.85034 3.60547C6.0135 3.93181 6.0135 4.74764 6.66617 4.74764C7.31883 4.74764 6.9925 5.4003 6.9925 5.4003L5.85034 5.8898C5.68717 6.21613 5.36084 6.90143 5.36084 7.03196C5.36084 7.19513 5.68717 7.52146 5.85034 7.68463C5.98087 7.81516 6.44861 7.84779 6.66617 7.84779Z" fill="black"/>
<path d="M6.99246 7.35828L6.83405 7.96645C6.76712 8.2234 6.56329 8.4059 6.39846 8.61407C6.359 8.6639 6.33667 8.71708 6.33667 8.77708C6.33667 8.9204 6.23631 9.38786 6.16738 9.68516C6.14963 9.76172 6.14424 9.84101 6.12639 9.91755C6.0935 10.0585 6.01345 10.1652 6.01345 10.2953C6.01346 10.6216 5.21417 11.201 5.03446 11.1111C4.85475 11.0212 4.54496 10.6631 4.54496 10.4584C4.54496 10.2896 4.07819 9.73498 4.02502 9.08643C4.00281 8.81541 3.96853 8.53266 3.8943 8.27106C3.82791 8.03709 3.7989 7.78192 3.8923 7.68462C4.0246 7.54678 4.51172 7.27509 4.85778 7.11123C4.97342 7.05647 5.08298 6.98717 5.16698 6.89066C5.32923 6.70425 5.4533 6.51194 5.54016 6.3791C5.62511 6.24917 5.68863 6.29742 5.66642 6.45106C5.63096 6.69639 5.57776 6.93408 5.7474 7.13994C6.22033 7.71385 6.49696 7.78569 6.7641 7.58664L6.99246 7.35828Z" fill="#C92222"/>
<path fill-rule="evenodd" clip-rule="evenodd" d="M6.70567 0.562469L6.76127 0.451277C6.89927 0.175272 7.15973 -0.0275265 7.46679 0.00305146C8.26514 0.0825514 9.43451 0.559176 9.75597 1.37199C9.82858 1.55559 9.78413 1.75879 9.69583 1.93538L9.63277 2.06149C9.63336 2.06202 9.63394 2.06257 9.63452 2.06313C11.7298 4.09803 10.0865 5.0901 7.28012 3.46536C5.14231 2.22768 4.85872 1.15697 4.99626 0.697974C5.01348 0.640506 5.04563 0.588151 5.08889 0.546576C5.45333 0.196254 6.24482 0.382882 6.70567 0.562469Z" fill="#C92222"/>
</svg>